# xmcd
# 
# Track frame offsets:
#     150
#     16797
#     33692
#     51412
#     69542
#     81087
#     120530
#     134175
#     155347
# 
# Disc length: 2361
# 
# Revision: 1
# Processed by: cddbd v1.5.2PL0 Copyright (c) Steve Scherf et al.
# Submitted via: fre:ac v1.0.31
# 
DISCID=7a093709
DTITLE=Eric Clapton - Slowhand (2004 Remaster)
DYEAR=1977
DGENRE=SoftRock
TTITLE0=Cocaine
TTITLE1=Wonderful Tonight
TTITLE2=Lay Down Sally
TTITLE3=Next Time You See Her
TTITLE4=We're All The Way
TTITLE5=The Core
TTITLE6=May You Never
TTITLE7=Mean Old Frisco
TTITLE8=Peaches And Diesel
EXTD=
EXTT0=
EXTT1=
EXTT2=
EXTT3=
EXTT4=
EXTT5=
EXTT6=
EXTT7=
EXTT8=
PLAYORDER=
